<svg width="800" height="336" viewBox="0 0 800 336" fill="none" xmlns="http://www.w3.org/2000/svg">
<g clip-path="url(#clip0_308_81)">
<path d="M384.618 216.899L349.183 171.369H335.513L377.584 119.431H399.217L361.26 166.162L360.729 156.816L407.578 216.899H384.618ZM321.844 216.899V119.431H340.689V216.899H321.844ZM418.665 216.899V119.431H437.511V216.899H418.665ZM452.132 216.899L485.178 119.431H515.968L549.944 216.899H530.567L501.768 132.382L508.536 135.32H491.947L498.848 132.382L470.978 216.899H452.132ZM475.225 190.996L481.197 174.974H520.481L526.32 190.996H475.225ZM564.336 216.899V118.764H583.181V216.899H564.336ZM623.527 216.899L593.798 174.44H614.9L645.558 216.899H623.527ZM577.607 184.321V168.966H602.292C605.743 168.966 608.707 168.254 611.184 166.83C613.75 165.406 615.741 163.403 617.156 160.822C618.572 158.24 619.28 155.303 619.28 152.009C619.28 148.627 618.572 145.645 617.156 143.064C615.741 140.482 613.75 138.48 611.184 137.056C608.707 135.631 605.743 134.919 602.292 134.919H577.607V118.764H600.302C608.087 118.764 614.812 119.921 620.474 122.235C626.225 124.549 630.649 128.065 633.746 132.783C636.843 137.501 638.391 143.42 638.391 150.541V152.677C638.391 159.887 636.798 165.806 633.613 170.435C630.516 175.063 626.137 178.535 620.474 180.849C614.812 183.163 608.087 184.321 600.302 184.321H577.607ZM650.299 216.899L683.345 119.431H714.135L748.11 216.899H728.734L699.935 132.382L706.703 135.32H690.114L697.015 132.382L669.145 216.899H650.299ZM673.391 190.996L679.364 174.974H718.648L724.487 190.996H673.391Z" fill="#011667"/>
<mask id="mask0_308_81" style="mask-type:luminance" maskUnits="userSpaceOnUse" x="52" y="51" width="234" height="235">
<path d="M240.811 51.5986H97.0355C72.6032 51.5986 52.7969 71.5245 52.7969 96.1043V240.748C52.7969 265.328 72.6032 285.254 97.0355 285.254H240.811C265.243 285.254 285.05 265.328 285.05 240.748V96.1043C285.05 71.5245 265.243 51.5986 240.811 51.5986Z" fill="white"/>
</mask>
<g mask="url(#mask0_308_81)">
<path d="M240.811 51.5986H97.0355C72.6032 51.5986 52.7969 71.5245 52.7969 96.1043V240.748C52.7969 265.328 72.6032 285.254 97.0355 285.254H240.811C265.243 285.254 285.05 265.328 285.05 240.748V96.1043C285.05 71.5245 265.243 51.5986 240.811 51.5986Z" fill="#F1F1F1"/>
<path d="M217.324 119.727C206.301 108.637 194.716 98.9968 183.07 90.99C196.399 84.1648 209.022 80.0618 219.972 78.7907C233.782 77.1878 243.986 80.1399 250.331 86.5227C256.675 92.9056 259.609 103.171 258.016 117.065C256.752 128.081 252.674 140.779 245.89 154.19C237.932 142.473 228.349 130.818 217.324 119.727Z" fill="#9700FF"/>
<path fill-rule="evenodd" clip-rule="evenodd" d="M207.07 130.054C219.393 142.452 229.73 155.521 237.829 168.422C229.73 181.322 219.394 194.39 207.071 206.785C194.747 219.183 181.757 229.584 168.934 237.732C156.11 229.584 143.12 219.183 130.798 206.787C118.476 194.39 108.138 181.322 100.039 168.422C108.138 155.52 118.476 142.451 130.8 130.053C143.122 117.657 156.111 107.257 168.934 99.1094C181.757 107.257 194.746 117.657 207.07 130.054ZM168.932 192.765C182.293 192.765 193.125 181.868 193.125 168.426C193.125 154.985 182.293 144.087 168.932 144.087C155.57 144.087 144.739 154.985 144.739 168.426C144.739 181.868 155.57 192.765 168.932 192.765Z" fill="#011667"/>
<path d="M183.07 245.849C194.717 237.843 206.302 228.202 217.326 217.111C228.35 206.021 237.932 194.367 245.89 182.652C252.673 196.062 256.752 208.759 258.014 219.775C259.608 233.668 256.673 243.933 250.328 250.315C243.985 256.699 233.781 259.651 219.971 258.047C209.021 256.777 196.399 252.674 183.07 245.849Z" fill="#9700FF"/>
<path d="M120.528 217.112C131.551 228.203 143.137 237.843 154.782 245.849C141.454 252.673 128.833 256.777 117.883 258.046C104.074 259.649 93.8706 256.698 87.5264 250.314C81.1822 243.932 78.2477 233.667 79.8407 219.773C81.1038 208.759 85.1812 196.062 91.9646 182.652C99.9231 194.367 109.505 206.022 120.528 217.112Z" fill="#9700FF"/>
<path d="M91.9662 154.191C99.9252 142.474 109.508 130.818 120.532 119.727C131.555 108.638 143.139 98.9984 154.785 90.9918C141.455 84.1671 128.834 80.0645 117.884 78.7936C104.074 77.1908 93.8708 80.143 87.5264 86.5257C81.182 92.9084 78.2476 103.174 79.8408 117.067C81.1042 128.083 85.1822 140.781 91.9662 154.191Z" fill="#9700FF"/>
</g>
</g>
<defs>
<clipPath id="clip0_308_81">
<rect width="695.652" height="233.655" fill="white" transform="translate(52.7812 51.5967)"/>
</clipPath>
</defs>
</svg>
